<?xml version="1.0" encoding="utf-8"?>
<!-- Generator: Adobe Illustrator 22.1.0, SVG Export Plug-In . SVG Version: 6.00 Build 0)  -->
<svg version="1.1" id="Layer_1" xmlns="http://www.w3.org/2000/svg" xmlns:xlink="http://www.w3.org/1999/xlink" x="0px" y="0px"
	 viewBox="0 0 569.9 250.7" style="enable-background:new 0 0 569.9 250.7;" xml:space="preserve">
<style type="text/css">
	.st0{fill:#00A0D1;}
	.st1{fill:#FFFFFF;}
</style>
<g>
	<path class="st0" d="M13,212.2c0,12.2,9.9,22.1,22.1,22.1H537c12.2,0,22.1-10,22.1-22.1V40.4c0-12.2-9.9-22.1-22.1-22.1H35.1
		C22.9,18.3,13,28.3,13,40.4V212.2z"/>
</g>
<g>
	<g>
		<g>
			<path class="st1" d="M382.2,70.3c-2.8-3-7.4-6.1-15-6.1c-7.5,0-12.2,3.1-15,6.1c-3.9,4.3-5.1,8.9-5.1,18.2c0,0.6,0,1.1,0,1.7
				c0,5.8-3.3,9.2-8.3,9.2c-5,0-8.1-3.4-8.1-9.2V71.7c0-0.3-0.1-1.4-1.4-1.4v0L317,74.9c0,0-1.5,0.7-1.5,2.4v12.8
				c0,5.8-3.3,9.2-8.3,9.2c-5,0-8.1-3.4-8.1-9.2V48.1c0-0.3-0.1-1.3-1.3-1.3l-12.7,4.7c-0.4,0.3-1.2,1-1.2,2.3v36.8
				c0,13.8,10.5,22.6,23.3,22.6c7.8,0,11.6-3.9,15.8-7.4c3.1,4.7,7.3,7.4,15.8,7.4c5.8,0,10.9-3.7,14.8-6.9
				c2.9,2.5,7.2,6.6,13.6,6.6c7.5,0,12.2-3.1,15-6.1c3.9-4.3,5.1-8.8,5.1-18.2C387.3,79.2,386.1,74.6,382.2,70.3z M371,98.4
				c-0.9,0.9-2.1,1.3-3.8,1.3c-1.7,0-2.9-0.4-3.8-1.3c-1.8-1.9-2.1-5.2-2.1-9.9c0-4.7,0.3-8,2.1-9.9c0.9-0.9,2.1-1.3,3.8-1.3
				c1.7,0,2.9,0.4,3.8,1.3c1.8,1.9,2.1,5.2,2.1,9.9C373.1,93.2,372.8,96.5,371,98.4z"/>
			<path class="st1" d="M331.3,117.7c0,0-7.5,5.7-7.5,11.1c0,5.4,4.3,7.9,7.5,7.9c3.3,0,7.5-2.5,7.5-7.9
				C338.8,123.4,331.3,117.7,331.3,117.7z"/>
			<path class="st1" d="M313.4,117.7c0,0-7.5,5.7-7.5,11.1c0,5.4,4.3,7.9,7.5,7.9c3.3,0,7.5-2.5,7.5-7.9
				C320.9,123.4,313.4,117.7,313.4,117.7z"/>
			<path class="st1" d="M114.7,123.6c0,0-7.5,5.7-7.5,11.1c0,5.4,4.3,7.9,7.5,7.9c3.3,0,7.5-2.5,7.5-7.9
				C122.3,129.3,114.7,123.6,114.7,123.6z"/>
			<path class="st1" d="M170.6,64.6c3.3,0,7.5-2.5,7.5-7.9c0-5.4-7.5-11.1-7.5-11.1s-7.5,5.7-7.5,11.1
				C163.1,62.1,167.4,64.6,170.6,64.6z"/>
			<path class="st1" d="M268.7,59.6c-4.5-4.6-9.7-7.1-17.1-7.1c-12.6,0-19.4,7.7-22.4,15.6c-0.3,0.8,0.9,1.5,0.9,1.5l11.6,2.3
				c1.1,0.4,1.8-0.7,1.8-0.7l0,0c1.3-3.9,3.4-5,8.1-5c2.8,0,4.9,1.2,6,2.7c1.4,1.9,2.3,2.1,2.3,13.6c0,11.5-0.1,12.4-1.5,14.3
				c-1.1,1.5-3.4,2-3.4,2h-4.1v-0.7c-0.1-8.8-1.3-13.3-5.1-17.5c-2.8-3-7.4-6.1-15-6.1c-7.5,0-12.2,3.1-15,6.1
				c-3.9,4.3-5.1,8.9-5.1,18.2h-22.7v0c-0.1,0-0.1,0-0.2,0c-5,0-8.1-3.4-8.1-9.2V71.4c0-0.3-0.1-1.3-1.3-1.3l-12.7,4.7
				c-0.4,0.3-1.2,1-1.2,2.3v12.8c0,5.8-3.3,9.2-8.3,9.2c-5,0-8.1-3.4-8.1-9.2V48.1c0-0.1-0.1-1.6-1.5-1.6L134,51
				c0,0-1.3,0.8-1.3,2.5v36.6c0,13.8,10.5,22.6,23.3,22.6c6.1,0,11.6-2.2,15.8-7.4c4.2,5.1,9.7,7.4,15.8,7.4c0.1,0,0.2,0,0.2,0v0
				l62.9-0.1h4.1v0c21.5-1.9,20.1-18.9,20.1-30C274.9,73.2,275.2,66.2,268.7,59.6z M224.7,99c0-4.7,0.3-8,2.1-9.9
				c0.9-0.9,2.1-1.3,3.8-1.3c1.7,0,2.9,0.4,3.8,1.3c1.8,1.9,2.1,5.2,2.1,9.9H224.7z"/>
		</g>
		<g>
			<g>
				<path class="st1" d="M102.4,193v-28.1c0-4.9-1.1-9.2-5-13.1c-2.5-2.5-6.7-3.9-11-3.9c-5.3,0-9,1.4-13,4.9
					c-3-3.4-6.7-4.9-11.2-4.9c-3.7,0-7.9,1.5-10.7,4.3v-3.9c0-0.3-0.1-0.8-0.9-0.8L38.7,152c-0.9,0.4-0.9,1.4-0.9,1.4V193
					c0,0.3,0.1,1.3,1.3,1.3h11.3c1.2,0,1.3-1,1.3-1.3v-26.2c0-5.3,3.8-6.3,5.6-6.3c1.9,0,5.6,1,5.6,6.3V193c0,0.3,0.1,1.3,1.3,1.3
					h11.3c1.2,0,1.3-1,1.3-1.3v-26.2c0-5.3,3.8-6.3,5.6-6.3c1.9,0,5.6,1,5.6,6.3V193c0,0.3,0.1,1.3,1.3,1.3h11.3
					C102.3,194.3,102.4,193.3,102.4,193z"/>
				<path class="st1" d="M122.3,193v-40.2l0-4.4v-0.2c0-0.3-0.2-0.8-0.9-0.8l-12.4,4.8c-0.6,0.2-0.7,0.7-0.7,1V193
					c0,0.3,0.1,1.3,1.3,1.3h11.3C122.2,194.3,122.3,193.3,122.3,193z"/>
				<path class="st1" d="M255.2,193v-28.5c0-9.3-4.8-16.6-14.7-16.6c-3.5,0-7.2,1.4-10.1,4.3v-17.5c0-0.3-0.1-0.8-0.9-0.8l-12.3,4.7
					c-0.9,0.4-0.7,1.2-0.7,1.2l0,0V193c0,0.3,0.1,1.3,1.3,1.3h11.3c1.2,0,1.3-0.9,1.3-1.2v-26.6c0-5,3.6-6,5.4-6c1.8,0,5.4,1,5.4,6
					V193c0,0.3,0.1,1.3,1.3,1.3h11.3C255.1,194.3,255.2,193.3,255.2,193z"/>
				<path class="st1" d="M299.9,193.1v-44.9c0-0.3-0.2-0.7-0.9-0.8l-12.4,4.8l0,0c-0.6,0.2-0.7,0.7-0.7,1v22.6
					c0,5.3-3.8,6.3-5.6,6.3c-1.9,0-5.6-1-5.6-6.3v-27.6c0-0.3-0.2-0.7-0.9-0.8l-12.4,4.8l0,0c-0.6,0.2-0.7,0.7-0.7,1v24.5
					c0,4.9,0.7,9.2,4.6,13.1c2.5,2.5,6,3.9,10.3,3.9c3.7,0,7.9-1.5,10.7-4.3v2.5c0,0.3,0.1,1.3,1.3,1.3h11
					C299.7,194.3,299.9,193.5,299.9,193.1z"/>
				<path class="st1" d="M345.5,193v-28.1c0-4.9-0.7-9.2-4.6-13.1c-2.5-2.5-6-3.9-10.3-3.9c-3.7,0-7.9,1.5-10.7,4.3v-3.9
					c0-0.3-0.2-0.8-0.9-0.8l-12,4.6c-0.6,0.2-0.7,0.7-0.7,1v0.2c0,0,0,0,0,0l0,0V193c0,0.3,0.1,1.3,1.3,1.3h11.3
					c1.2,0,1.3-0.9,1.3-1.2v-26.2c0-5.3,3.8-6.3,5.6-6.3c1.9,0,5.6,1,5.6,6.3v26.2c0,0.3,0.1,1.2,1.3,1.2h11.3
					C345.4,194.3,345.5,193.3,345.5,193z"/>
				<path class="st1" d="M165.9,147.4l-12.3,4.8c-0.6,0.2-0.7,0.7-0.7,1v23.2c0,5-3.6,6-5.4,6c-1.8,0-5.4-1-5.4-6v-27.9l0,0
					c0,0,0,0,0,0v-0.2c0-0.3-0.2-0.8-0.9-0.8l-12.4,4.8c-0.5,0.2-0.6,0.6-0.7,0.9v25.2c0,9.3,4.8,16.6,14.7,16.6
					c3.5,0,7.2-1.4,10.1-4.3v6c0,3-1.5,7-7.4,7c-2.8,0-5.2-0.6-7.2-2.3l0,0c0,0-0.7-0.6-1.3,0l0,0l-7.5,7.5c-0.4,0.5-0.2,0.9,0,1.1
					c4.6,4.3,9.8,5.5,16.7,5.5c12.5,0,20.7-7.9,20.7-18.7v-48.6C166.8,148,166.7,147.4,165.9,147.4z"/>
				<path class="st1" d="M190.6,147.3c-7.4,0-11.6,1.3-16,5.5c-0.2,0.2-0.5,0.8,0.1,1.4l0,0l7.2,7.2c0.6,0.6,1.2,0.3,1.5,0.1
					c0,0,0.1-0.1,0.1-0.1l0,0l0,0c1.8-1.6,3.4-2.3,6.5-2.3c4.9,0,6.9,1.5,6.9,5.7v1.8h-9.3c-10.9,0-15.6,6.4-15.6,13.3
					c0,4.3,1.4,8.1,4,10.8c2.6,2.6,6.4,4.1,11,4.1c4.9,0,7.4-1.4,10.2-4.2v2.7c0.1,0.4,0.3,1.1,1.3,1.1l0,0h11l0,0
					c1.2,0,1.3-1,1.3-1.3v-29.1C210.9,152.8,203.8,147.3,190.6,147.3z M196.9,177c0,2.2-0.3,3.7-1.4,4.6c-1.5,1.5-2.8,1.7-5.5,1.7
					c-3.1,0-4.6-1.8-4.6-3.8c0-2.1,1.7-3.7,4.4-3.7h7.1V177z"/>
				<path class="st1" d="M367.1,147.3c-7.4,0-11.6,1.3-16,5.5c-0.2,0.2-0.5,0.8,0.1,1.4l0,0l7.2,7.2c0.6,0.6,1.2,0.3,1.5,0.1
					c0,0,0.1-0.1,0.1-0.1l0,0l0,0c1.8-1.6,3.4-2.3,6.5-2.3c4.9,0,6.9,1.5,6.9,5.7v1.8H364c-10.9,0-15.6,6.4-15.6,13.3
					c0,4.3,1.4,8.1,4,10.8c2.6,2.6,6.4,4.1,11,4.1c4.9,0,7.4-1.4,10.2-4.2v2.7c0.1,0.4,0.3,1.1,1.3,1.1l0,0h11l0,0
					c1.2,0,1.3-1,1.3-1.3v-29.1C387.3,152.8,380.2,147.3,367.1,147.3z M373.3,177c0,2.2-0.3,3.7-1.4,4.6c-1.5,1.5-2.8,1.7-5.5,1.7
					c-3.1,0-4.6-1.8-4.6-3.8c0-2.1,1.7-3.7,4.4-3.7h7.1V177z"/>
			</g>
		</g>
	</g>
	<g>
		<path class="st1" d="M442.2,148.4c7.8,0,12.2-2.5,16.9-5.1c4.4-2.4,8.8-5,15.5-5c6.6,0,11.1,2.5,15.5,5c4.7,2.6,9.2,5.1,16.9,5.1
			c11.1,0,16.3-3.7,23-8.4l5.5-3.6c-1.7-7.9-5.2-15.7-9.7-23.4l-0.4,0.3c-6.1,4.3-11.8,8.3-23.2,8.3c-8.3,0-13.2-2.8-17.5-5.2
			c-3.4-1.9-6.1-3.4-10.2-3.4c-4,0-6.7,1.5-10.2,3.4c-4.3,2.4-9.2,5.2-17.5,5.2c-11.4,0-17.7-4.3-23.6-8.5
			c-4.4,7.7-7.9,15.4-9.6,23.4l4.2,2.8C424.2,143.7,430.9,148.4,442.2,148.4z"/>
		<path class="st1" d="M447,114.8c6.5,0,10.3-2.1,14.2-4.3c3.8-2.1,7.7-4.3,13.5-4.3c5.8,0,9.7,2.2,13.5,4.3c4,2.2,7.7,4.3,14.2,4.3
			c9.3,0,13.7-3.1,19.3-7.1l0.8-0.5c-3-4.8-6.3-9.6-9.6-14.3C500.7,75.6,474.6,45,474.6,45s-26.1,30.6-38.2,47.9
			c-3.3,4.7-6.6,9.5-9.6,14.3l0.1,0.1C432.6,111.3,437.5,114.8,447,114.8z"/>
		<path class="st1" d="M536.6,143.7l-2.7,1.8c-7,4.9-13.6,9.6-26.9,9.6c-9.6,0-15.2-3.2-20.2-6c-3.9-2.2-7.3-4.1-12.2-4.1
			c-4.9,0-8.3,1.9-12.2,4.1c-5,2.8-10.7,6-20.2,6c-13.5,0-21.3-5.6-28.2-10.5l-1.3-0.9c-0.1,0.9-0.1,1.9-0.1,2.8
			c0,8.3,1.6,16.2,4.6,23.5l2.7,1.8c6.2,4.4,12.5,8.9,23.5,8.9c7.5,0,11.8-2.4,16.3-5c4.2-2.4,8.6-4.8,15-4.8c6.4,0,10.8,2.5,15,4.8
			c4.5,2.5,8.8,5,16.3,5c10.7,0,15-3.1,21.6-7.7l4.5-3c2.9-7.2,4.6-15.1,4.6-23.4C536.7,145.6,536.6,144.7,536.6,143.7z"/>
		<path class="st1" d="M486.3,181.6c-3.9-2.2-7-4-11.7-4c-4.7,0-7.8,1.7-11.7,4c-4.9,2.7-10.4,5.8-19.6,5.8
			c-8.1,0-14.2-2.1-19.2-4.8c11.3,15.7,29.7,26,50.5,26c20.8,0,39.2-10.2,50.4-25.9c-4.8,2.8-10.3,4.7-19.1,4.7
			C496.7,187.4,491.2,184.4,486.3,181.6z"/>
	</g>
</g>
</svg>
